<?xml version="1.0" standalone="no"?>
<!DOCTYPE svg PUBLIC "-//W3C//DTD SVG 20010904//EN"
 "http://www.w3.org/TR/2001/REC-SVG-20010904/DTD/svg10.dtd">
<svg version="1.0" xmlns="http://www.w3.org/2000/svg"
 width="91.000000pt" height="100.000000pt" viewBox="0 0 91.000000 100.000000"
 preserveAspectRatio="xMidYMid meet">

<g transform="translate(0.000000,100.000000) scale(0.100000,-0.100000)"
fill="#000000" stroke="none">
<path d="M128 903 c-46 -3 -60 -8 -69 -25 -8 -14 -9 -101 -4 -297 8 -313 7
-308 92 -331 31 -9 47 -20 54 -37 4 -12 14 -24 21 -24 62 -6 83 -11 94 -26 9
-13 26 -18 58 -18 29 0 46 -4 46 -12 0 -31 54 -26 63 6 3 14 11 17 31 14 35
-7 76 4 76 21 0 8 16 16 41 19 23 3 53 16 68 30 14 13 45 29 69 36 23 6 42 16
42 21 0 6 6 10 13 10 26 0 35 41 41 195 7 176 -4 389 -22 407 -11 11 -579 20
-714 11z m665 -62 c15 -1 17 -14 17 -121 0 -100 -2 -120 -15 -120 -18 0 -17 4
-19 -140 l-1 -115 -30 0 -30 0 -3 93 -3 94 -94 -4 c-51 -1 -97 -7 -102 -11 -4
-5 -8 -59 -8 -120 l0 -112 53 -3 52 -3 0 30 c0 30 1 31 50 31 49 0 50 -1 50
-30 0 -29 -1 -30 -50 -30 -43 0 -50 -3 -50 -19 0 -17 -8 -20 -52 -23 -51 -3
-53 -4 -56 -34 -3 -30 -5 -31 -50 -30 -45 1 -47 2 -50 33 -3 31 -5 32 -55 35
-38 2 -52 7 -52 18 0 11 14 16 53 18 l52 3 0 97 c0 53 -4 102 -8 109 -4 7 -24
9 -55 6 -38 -5 -47 -9 -47 -25 0 -16 -6 -18 -38 -17 -53 4 -62 -5 -62 -61 l0
-49 53 -3 c48 -3 52 -5 55 -31 3 -27 2 -27 -52 -27 -56 0 -56 0 -56 30 0 23
-4 30 -20 30 -17 0 -20 7 -20 50 0 41 -4 51 -22 61 -13 7 -25 12 -28 11 -3 -1
-6 83 -7 187 l-2 190 32 3 c28 3 624 2 670 -1z"/>
<path d="M110 620 c0 -5 5 -10 10 -10 6 0 10 5 10 10 0 6 -4 10 -10 10 -5 0
-10 -4 -10 -10z"/>
</g>
</svg>
