<?xml version="1.0" standalone="no"?>
<!DOCTYPE svg PUBLIC "-//W3C//DTD SVG 20010904//EN"
 "http://www.w3.org/TR/2001/REC-SVG-20010904/DTD/svg10.dtd">
<svg version="1.0" xmlns="http://www.w3.org/2000/svg"
 width="91.000000pt" height="100.000000pt" viewBox="0 0 91.000000 100.000000"
 preserveAspectRatio="xMidYMid meet">

<g transform="translate(0.000000,100.000000) scale(0.100000,-0.100000)"
fill="#000000" stroke="none">
<path d="M127 903 c-51 -4 -59 -7 -67 -29 -6 -14 -10 -148 -10 -297 l0 -272
30 -29 c18 -17 45 -30 68 -33 31 -4 41 -11 49 -34 10 -25 16 -29 50 -29 26 0
44 -6 56 -20 9 -11 29 -20 44 -20 33 0 46 -8 61 -36 6 -12 20 -24 31 -27 23
-6 61 18 61 37 0 16 22 26 56 26 13 0 32 9 41 20 11 12 30 20 50 20 32 0 63
21 63 44 0 8 16 16 38 18 20 3 56 18 80 34 l43 28 -3 288 c-2 219 -6 290 -16
300 -10 10 -86 13 -340 14 -180 0 -353 -1 -385 -3z m666 -62 c15 -1 17 -14 17
-121 0 -96 -3 -120 -14 -120 -21 0 -24 -16 -24 -140 l1 -115 -32 -3 c-27 -3
-31 -7 -31 -33 0 -28 -1 -29 -50 -29 -43 0 -50 -3 -50 -19 0 -17 -8 -20 -52
-23 -51 -3 -53 -4 -56 -34 -3 -30 -5 -31 -50 -30 -44 1 -47 3 -52 31 -5 28 -8
30 -54 33 -38 3 -49 7 -53 23 -4 15 -14 19 -54 19 -48 0 -49 1 -49 30 0 23 -4
30 -20 30 -17 0 -20 7 -20 50 0 41 -4 51 -22 61 -13 7 -25 12 -28 11 -3 -1 -6
83 -8 187 l-2 190 32 3 c29 3 624 2 671 -1z"/>
<path d="M520 520 c-12 -7 -16 -36 -18 -125 l-4 -115 56 0 c56 0 56 0 56 30 0
29 1 30 50 30 l50 0 0 95 0 95 -87 0 c-49 0 -95 -5 -103 -10z"/>
<path d="M333 493 c-35 -3 -43 -8 -43 -24 0 -17 -6 -19 -38 -18 -53 4 -62 -5
-62 -61 l0 -49 53 -3 c32 -2 52 -8 53 -15 1 -7 2 -20 3 -28 1 -11 14 -15 51
-15 l50 0 0 94 c0 92 -5 128 -19 124 -3 -1 -25 -3 -48 -5z"/>
</g>
</svg>
